# xmcd
#
# Track frame offsets: 
#        150
#        21952
#        41855
#        58492
#        79870
#        103247
#        123185
#        151682
#        175285
#
# Disc length: 2674 seconds
#
# Revision: 4
# Processed by: cddbd v1.5.1PL0 Copyright (c) Steve Scherf et al.
# Submitted via: ExactAudioCopy v0.95b3
#
DISCID=760a7009
DTITLE=Tom Waits - Heartattack and Vine
DYEAR=1980
DGENRE=
TTITLE0=Heartattack and Vine
TTITLE1=In Shades
TTITLE2=Saving All My Love For You
TTITLE3=Downtown
TTITLE4=Jersey Girl
TTITLE5='Til the Money Runs Out
TTITLE6=On The Nickel
TTITLE7=Mr Siegal
TTITLE8=Ruby's Arms
EXTD=
EXTT0=
EXTT1=
EXTT2=
EXTT3=
EXTT4=
EXTT5=
EXTT6=
EXTT7=
EXTT8=
PLAYORDER=
